<svg aria-hidden="true" style="position: absolute; width: 0; height: 0; overflow: hidden;" version="1.1" xmlns="http://www.w3.org/2000/svg" xmlns:xlink="http://www.w3.org/1999/xlink">
<defs>
<symbol id="icon-chat" viewBox="0 0 32 32">
<path d="M25.042 18.672v-12.487c0-1.234-1-2.236-2.236-2.236h-19.571c-1.235-0.001-2.236 1.001-2.236 2.236v12.487c0 1.235 1.001 2.236 2.236 2.236h3.729v5.137l5.704-5.137h10.137c1.237 0 2.237-1.001 2.237-2.236zM28.765 8.858h-2.798c0 0 0 9.972 0 10.909s-1.216 2.142-2.153 2.142-10.945 0.055-10.945 0.055c0 1.235 1.001 1.986 2.236 1.986h4.309l5.622 5.102-0.007-5.102h3.736c1.236 0 2.236-0.751 2.236-1.986v-10.932c0-1.234-1-2.174-2.236-2.174z"></path>
</symbol>
<symbol id="icon-product" viewBox="0 0 42 32">
<path d="M40.5 0h-10c-0.691 0-1.574 0.376-2.047 0.87l-1.33 1.34c-0.194 0.196-0.192 0.513 0.004 0.707 0.194 0.194 0.513 0.193 0.707-0.003l1.334-1.346c0.285-0.297 0.92-0.568 1.332-0.568h10c0.275 0 0.5 0.224 0.5 0.5v10.049c0 0.411-0.271 1.046-0.574 1.337l-14.081 13.972c-0.201 0.191-0.535 0.186-0.73-0.008l-2.648-2.649c-0.195-0.195-0.512-0.195-0.707 0s-0.195 0.512 0 0.707l2.648 2.649c0.294 0.293 0.684 0.441 1.074 0.441 0.382 0 0.765-0.141 1.062-0.424l14.082-13.973c0.498-0.478 0.874-1.361 0.874-2.052v-10.049c0-0.827-0.673-1.5-1.5-1.5zM39.038 5c0-1.103-0.897-2-2-2s-2 0.897-2 2 0.897 2 2 2 2-0.897 2-2zM36.038 5c0-0.551 0.448-1 1-1s1 0.449 1 1-0.448 1-1 1-1-0.449-1-1zM16.462 4c-0.691 0-1.574 0.376-2.048 0.87l-13.993 14.131c-0.568 0.592-0.56 1.547 0.021 2.128l10.428 10.428c0.285 0.286 0.667 0.443 1.076 0.443 0.396 0 0.77-0.149 1.059-0.426l14.081-13.972c0.499-0.478 0.876-1.361 0.876-2.053v-10.049c0-0.827-0.673-1.5-1.5-1.5h-10zM27 5.5v10.049c0 0.412-0.309 1.046-0.612 1.337l-14.081 13.972c-0.195 0.185-0.54 0.181-0.729-0.008l-10.429-10.427c-0.195-0.196-0.199-0.53-0.013-0.723l13.994-14.132c0.285-0.297 0.92-0.568 1.332-0.568h10c0.275 0 0.538 0.224 0.538 0.5zM23 7c-1.103 0-2 0.897-2 2s0.897 2 2 2 2-0.897 2-2-0.897-2-2-2zM23 10c-0.552 0-1-0.449-1-1s0.448-1 1-1 1 0.449 1 1-0.448 1-1 1z"></path>
</symbol>
<symbol id="icon-magnifying-glass" viewBox="0 0 20 20">
<path d="M17.545 15.467l-3.779-3.779c0.57-0.935 0.898-2.035 0.898-3.21 0-3.417-2.961-6.377-6.378-6.377s-6.186 2.769-6.186 6.186c0 3.416 2.961 6.377 6.377 6.377 1.137 0 2.2-0.309 3.115-0.844l3.799 3.801c0.372 0.371 0.975 0.371 1.346 0l0.943-0.943c0.371-0.371 0.236-0.84-0.135-1.211zM4.004 8.287c0-2.366 1.917-4.283 4.282-4.283s4.474 2.107 4.474 4.474c0 2.365-1.918 4.283-4.283 4.283s-4.473-2.109-4.473-4.474z"></path>
</symbol>
<symbol id="icon-cart" viewBox="0 0 20 20">
<path d="M7.5 18.125c0 1.036-0.839 1.875-1.875 1.875s-1.875-0.839-1.875-1.875c0-1.036 0.839-1.875 1.875-1.875s1.875 0.839 1.875 1.875z"></path>
<path d="M20 18.125c0 1.036-0.839 1.875-1.875 1.875s-1.875-0.839-1.875-1.875c0-1.036 0.839-1.875 1.875-1.875s1.875 0.839 1.875 1.875z"></path>
<path d="M20 10v-7.5h-15c0-0.69-0.56-1.25-1.25-1.25h-3.75v1.25h2.5l0.939 8.048c-0.572 0.458-0.939 1.162-0.939 1.952 0 1.381 1.119 2.5 2.5 2.5h15v-1.25h-15c-0.69 0-1.25-0.56-1.25-1.25 0-0.004 0-0.009 0-0.013l16.25-2.487z"></path>
</symbol>
<symbol id="icon-contact" viewBox="0 0 32 32">
<path d="M29 32h-22c-0.552 0-1-0.447-1-1v-1h-3c-0.553 0-1-0.447-1-1v-2c0-0.553 0.447-1 1-1h3v-2h-3c-0.553 0-1-0.447-1-1v-2c0-0.553 0.447-1 1-1h3v-2h-3c-0.553 0-1-0.447-1-1v-2c0-0.553 0.447-1 1-1h3v-2h-3c-0.553 0-1-0.447-1-1v-2c0-0.553 0.447-1 1-1h3v-2h-3c-0.553 0-1-0.447-1-1v-2c0-0.553 0.447-1 1-1h3v-1c0-0.553 0.448-1 1-1h22c0.553 0 1 0.447 1 1v30c0 0.553-0.447 1-1 1zM6 3h-2c-0.553 0-1 0.447-1 1s0.447 1 1 1h2c0.553 0 1-0.447 1-1s-0.447-1-1-1zM6 9h-2c-0.553 0-1 0.447-1 1s0.447 1 1 1h2c0.553 0 1-0.447 1-1s-0.447-1-1-1zM6 15h-2c-0.553 0-1 0.447-1 1s0.447 1 1 1h2c0.553 0 1-0.447 1-1s-0.447-1-1-1zM6 21h-2c-0.553 0-1 0.447-1 1s0.447 1 1 1h2c0.553 0 1-0.447 1-1s-0.447-1-1-1zM6 27h-2c-0.553 0-1 0.447-1 1s0.447 1 1 1h2c0.553 0 1-0.447 1-1s-0.447-1-1-1zM24 20.875c0-1.705-2.118-2.317-4.912-2.573 0.116-0.071 0.222-0.188 0.327-0.302h-0.415c0.553 0 1-0.447 1-1v-6c0-0.553-0.447-1-1-1h-2c-0.553 0-1 0.447-1 1v6c0 0.553 0.447 1 1 1h-0.415c0.105 0.114 0.212 0.23 0.327 0.302-2.794 0.256-4.912 0.891-4.912 2.573v1.125h12v-1.125z"></path>
</symbol>
<symbol id="icon-cart" viewBox="0 0 32 32">
<path d="M12 29c0 1.657-1.343 3-3 3s-3-1.343-3-3c0-1.657 1.343-3 3-3s3 1.343 3 3z"></path>
<path d="M32 29c0 1.657-1.343 3-3 3s-3-1.343-3-3c0-1.657 1.343-3 3-3s3 1.343 3 3z"></path>
<path d="M32 16v-12h-24c0-1.105-0.895-2-2-2h-6v2h4l1.502 12.877c-0.915 0.733-1.502 1.859-1.502 3.123 0 2.209 1.791 4 4 4h24v-2h-24c-1.105 0-2-0.895-2-2 0-0.007 0-0.014 0-0.020l26-3.98z"></path>
</symbol>
<symbol id="icon-user" viewBox="0 0 32 32">
<path d="M12 23c0-4.726 2.996-8.765 7.189-10.319 0.509-1.142 0.811-2.411 0.811-3.681 0-4.971 0-9-6-9s-6 4.029-6 9c0 3.096 1.797 6.191 4 7.432v1.649c-6.784 0.555-12 3.888-12 7.918h12.416c-0.271-0.954-0.416-1.96-0.416-3z"></path>
<path d="M23 14c-4.971 0-9 4.029-9 9s4.029 9 9 9c4.971 0 9-4.029 9-9s-4.029-9-9-9zM28 24h-4v4h-2v-4h-4v-2h4v-4h2v4h4v2z"></path>
</symbol>
<symbol id="icon-registration" viewBox="0 0 24 24">
<path d="M9.984 3.984h4.031v4.031h-4.031v-4.031zM3.984 15.984h4.031v4.031h-4.031v-4.031zM3.984 9.984h4.031v4.031h-4.031v-4.031zM3.984 3.984h4.031v4.031h-4.031v-4.031zM14.016 12.422v-2.438h-4.031v4.031h2.438zM20.859 11.297l-1.172-1.172q-0.094-0.141-0.258-0.141t-0.305 0.141l-0.891 0.891 1.781 1.734 0.844-0.891q0.141-0.094 0.141-0.281t-0.141-0.281zM11.016 18.234v1.781h1.734l6.656-6.703-1.734-1.734zM15.984 3.984h4.031v4.031h-4.031v-4.031z"></path>
</symbol>
</defs>
</svg>
